HIERARCHY
ROOT Hips
{
	OFFSET 1.324476 86.935013 4.250773
	CHANNELS 6 Xposition Yposition Zposition Zrotation Yrotation Xrotation 
	JOINT Spine
	{
		OFFSET 0.000000 8.814246 -2.080107
		CHANNELS 3 Zrotation Yrotation Xrotation
		JOINT Spine1
		{
			OFFSET 0.000000 8.844141 -0.000000
			CHANNELS 3 Zrotation Yrotation Xrotation
			JOINT Spine2
			{
				OFFSET 0.000000 11.682268 0.000000
				CHANNELS 3 Zrotation Yrotation Xrotation
				JOINT Spine3
				{
					OFFSET 0.000000 11.746700 0.000000
					CHANNELS 3 Zrotation Yrotation Xrotation
					JOINT Neck
					{
						OFFSET -0.000000 17.658264 -0.000000
						CHANNELS 3 Zrotation Yrotation Xrotation
						JOINT Neck1
						{
							OFFSET 0.000000 5.101515 -0.000000
							CHANNELS 3 Zrotation Yrotation Xrotation
							JOINT Head
							{
								OFFSET 0.000000 5.101515 0.000000
								CHANNELS 3 Zrotation Yrotation Xrotation
								JOINT HeadEnd
								{
									OFFSET -0.000000 11.655085 0.000000
									CHANNELS 3 Zrotation Yrotation Xrotation
									End Site
									{
										OFFSET 0.000000 0.000000 0.000000
									}
								}
							}
						}
					}
					JOINT RightShoulder
					{
						OFFSET -2.625389 11.175210 -0.000000
						CHANNELS 3 Zrotation Yrotation Xrotation
						JOINT RightArm
						{
							OFFSET -0.000000 10.434715 -0.000000
							CHANNELS 3 Zrotation Yrotation Xrotation
							JOINT RightForeArm
							{
								OFFSET -0.000000 29.628420 -0.000000
								CHANNELS 3 Zrotation Yrotation Xrotation
								JOINT RightHand
								{
									OFFSET -0.000000 22.857611 -0.000000
									CHANNELS 3 Zrotation Yrotation Xrotation
									JOINT RightHandThumb1
									{
										OFFSET -2.867323 3.959563 2.944291
										CHANNELS 3 Zrotation Yrotation Xrotation
										JOINT RightHandThumb2
										{
											OFFSET -0.000000 3.350399 0.000000
											CHANNELS 3 Zrotation Yrotation Xrotation
											JOINT RightHandThumb3
											{
												OFFSET 0.000000 3.756509 -0.000000
												CHANNELS 3 Zrotation Yrotation Xrotation
												JOINT RightHandThumb4
												{
													OFFSET 0.000000 3.147345 -0.000000
													CHANNELS 3 Zrotation Yrotation Xrotation
													End Site
													{
														OFFSET 0.000000 0.000000 0.000000
													}
												}
											}
										}
									}
									JOINT RightHandIndex1
									{
										OFFSET -0.086752 10.030893 2.345280
										CHANNELS 3 Zrotation Yrotation Xrotation
										JOINT RightHandIndex2
										{
											OFFSET -0.000000 4.061090 -0.000000
											CHANNELS 3 Zrotation Yrotation Xrotation
											JOINT RightHandIndex3
											{
												OFFSET 0.000000 3.248873 0.000000
												CHANNELS 3 Zrotation Yrotation Xrotation
												JOINT RightHandIndex4
												{
													OFFSET 0.000000 2.639709 -0.000000
													CHANNELS 3 Zrotation Yrotation Xrotation
													End Site
													{
														OFFSET 0.000000 0.000000 0.000000
													}
												}
											}
										}
									}
									JOINT RightHandMiddle1
									{
										OFFSET 0.104102 9.502952 0.006768
										CHANNELS 3 Zrotation Yrotation Xrotation
										JOINT RightHandMiddle2
										{
											OFFSET 0.000000 4.568727 0.000000
											CHANNELS 3 Zrotation Yrotation Xrotation
											JOINT RightHandMiddle3
											{
												OFFSET 0.000000 3.654981 -0.000000
												CHANNELS 3 Zrotation Yrotation Xrotation
												JOINT RightHandMiddle4
												{
													OFFSET -0.000000 2.741236 -0.000000
													CHANNELS 3 Zrotation Yrotation Xrotation
													End Site
													{
														OFFSET 0.000000 0.000000 0.000000
													}
												}
											}
										}
									}
									JOINT RightHandRing1
									{
										OFFSET 0.086752 8.921708 -2.267442
										CHANNELS 3 Zrotation Yrotation Xrotation
										JOINT RightHandRing2
										{
											OFFSET -0.000000 4.061090 0.000000
											CHANNELS 3 Zrotation Yrotation Xrotation
											JOINT RightHandRing3
											{
												OFFSET -0.000000 3.654981 -0.000000
												CHANNELS 3 Zrotation Yrotation Xrotation
												JOINT RightHandRing4
												{
													OFFSET -0.000000 2.741236 -0.000000
													CHANNELS 3 Zrotation Yrotation Xrotation
													End Site
													{
														OFFSET 0.000000 0.000000 0.000000
													}
												}
											}
										}
									}
									JOINT RightHandPinky1
									{
										OFFSET -0.173504 7.976997 -4.467199
										CHANNELS 3 Zrotation Yrotation Xrotation
										JOINT RightHandPinky2
										{
											OFFSET -0.000000 3.350399 -0.000000
											CHANNELS 3 Zrotation Yrotation Xrotation
											JOINT RightHandPinky3
											{
												OFFSET -0.000000 2.842763 -0.000000
												CHANNELS 3 Zrotation Yrotation Xrotation
												JOINT RightHandPinky4
												{
													OFFSET 0.000000 2.639709 0.000000
													CHANNELS 3 Zrotation Yrotation Xrotation
													End Site
													{
														OFFSET 0.000000 0.000000 0.000000
													}
												}
											}
										}
									}
									JOINT RightForeArmEnd
									{
										OFFSET 0.000000 0.000000 0.000000
										CHANNELS 3 Zrotation Yrotation Xrotation
										End Site
										{
											OFFSET 0.000000 0.000000 0.000000
										}
									}
								}
								JOINT RightArmEnd
								{
									OFFSET 0.000000 0.000000 0.000000
									CHANNELS 3 Zrotation Yrotation Xrotation
									End Site
									{
										OFFSET 0.000000 0.000000 0.000000
									}
								}
							}
						}
					}
					JOINT LeftShoulder
					{
						OFFSET 2.625389 11.175210 -0.000000
						CHANNELS 3 Zrotation Yrotation Xrotation
						JOINT LeftArm
						{
							OFFSET 0.000000 10.813635 0.000000
							CHANNELS 3 Zrotation Yrotation Xrotation
							JOINT LeftForeArm
							{
								OFFSET 0.000000 28.724781 -0.000000
								CHANNELS 3 Zrotation Yrotation Xrotation
								JOINT LeftHand
								{
									OFFSET 0.644384 25.716167 -0.328871
									CHANNELS 3 Zrotation Yrotation Xrotation
									JOINT LeftHandThumb1
									{
										OFFSET 2.867323 3.959563 2.944291
										CHANNELS 3 Zrotation Yrotation Xrotation
										JOINT LeftHandThumb2
										{
											OFFSET -0.000000 3.350399 -0.000000
											CHANNELS 3 Zrotation Yrotation Xrotation
											JOINT LeftHandThumb3
											{
												OFFSET -0.000000 3.756509 0.000000
												CHANNELS 3 Zrotation Yrotation Xrotation
												JOINT LeftHandThumb4
												{
													OFFSET 0.000000 3.100000 -0.000000
													CHANNELS 3 Zrotation Yrotation Xrotation
													End Site
													{
														OFFSET 0.000000 0.000000 0.000000
													}
												}
											}
										}
									}
									JOINT LeftHandIndex1
									{
										OFFSET 0.086752 10.030893 2.345280
										CHANNELS 3 Zrotation Yrotation Xrotation
										JOINT LeftHandIndex2
										{
											OFFSET 0.000000 4.061090 -0.000000
											CHANNELS 3 Zrotation Yrotation Xrotation
											JOINT LeftHandIndex3
											{
												OFFSET 0.000000 3.248873 -0.000000
												CHANNELS 3 Zrotation Yrotation Xrotation
												JOINT LeftHandIndex4
												{
													OFFSET -0.000000 2.639709 0.000000
													CHANNELS 3 Zrotation Yrotation Xrotation
													End Site
													{
														OFFSET 0.000000 0.000000 0.000000
													}
												}
											}
										}
									}
									JOINT LeftHandMiddle1
									{
										OFFSET -0.104102 9.502952 0.006768
										CHANNELS 3 Zrotation Yrotation Xrotation
										JOINT LeftHandMiddle2
										{
											OFFSET 0.000000 4.568727 -0.000000
											CHANNELS 3 Zrotation Yrotation Xrotation
											JOINT LeftHandMiddle3
											{
												OFFSET 0.000000 3.654981 -0.000000
												CHANNELS 3 Zrotation Yrotation Xrotation
												JOINT LeftHandMiddle4
												{
													OFFSET -0.000000 2.741236 0.000000
													CHANNELS 3 Zrotation Yrotation Xrotation
													End Site
													{
														OFFSET 0.000000 0.000000 0.000000
													}
												}
											}
										}
									}
									JOINT LeftHandRing1
									{
										OFFSET -0.086752 8.921708 -2.267442
										CHANNELS 3 Zrotation Yrotation Xrotation
										JOINT LeftHandRing2
										{
											OFFSET 0.000000 4.061090 -0.000000
											CHANNELS 3 Zrotation Yrotation Xrotation
											JOINT LeftHandRing3
											{
												OFFSET 0.000000 3.654981 -0.000000
												CHANNELS 3 Zrotation Yrotation Xrotation
												JOINT LeftHandRing4
												{
													OFFSET 0.000000 2.741236 0.000000
													CHANNELS 3 Zrotation Yrotation Xrotation
													End Site
													{
														OFFSET 0.000000 0.000000 0.000000
													}
												}
											}
										}
									}
									JOINT LeftHandPinky1
									{
										OFFSET 0.173504 7.976997 -4.467199
										CHANNELS 3 Zrotation Yrotation Xrotation
										JOINT LeftHandPinky2
										{
											OFFSET 0.000000 3.350399 -0.000000
											CHANNELS 3 Zrotation Yrotation Xrotation
											JOINT LeftHandPinky3
											{
												OFFSET -0.000000 2.842763 0.000000
												CHANNELS 3 Zrotation Yrotation Xrotation
												JOINT LeftHandPinky4
												{
													OFFSET 0.000000 2.639709 -0.000000
													CHANNELS 3 Zrotation Yrotation Xrotation
													End Site
													{
														OFFSET 0.000000 0.000000 0.000000
													}
												}
											}
										}
									}
									JOINT LeftForeArmEnd
									{
										OFFSET 0.000000 0.000000 0.000000
										CHANNELS 3 Zrotation Yrotation Xrotation
										End Site
										{
											OFFSET 0.000000 0.000000 0.000000
										}
									}
								}
								JOINT LeftArmEnd
								{
									OFFSET 0.000000 0.000000 0.000000
									CHANNELS 3 Zrotation Yrotation Xrotation
									End Site
									{
										OFFSET 0.000000 0.000000 0.000000
									}
								}
							}
						}
					}
				}
			}
		}
	}
	JOINT RightUpLeg
	{
		OFFSET -11.289943 -0.000000 0.000000
		CHANNELS 3 Zrotation Yrotation Xrotation
		JOINT RightLeg
		{
			OFFSET -0.000000 -38.200325 -0.000000
			CHANNELS 3 Zrotation Yrotation Xrotation
			JOINT RightFoot
			{
				OFFSET -0.000000 -39.900856 0.000000
				CHANNELS 3 Zrotation Yrotation Xrotation
				JOINT RightToeBase
				{
					OFFSET 0.000000 0.000000 15.261641
					CHANNELS 3 Zrotation Yrotation Xrotation
					JOINT RightToeBaseEnd
					{
						OFFSET 0.000000 -0.000000 7.370709
						CHANNELS 3 Zrotation Yrotation Xrotation
						End Site
						{
							OFFSET 0.000000 0.000000 0.000000
						}
					}
				}
				JOINT RightLegEnd
				{
					OFFSET 0.000000 0.000000 0.000000
					CHANNELS 3 Zrotation Yrotation Xrotation
					End Site
					{
						OFFSET 0.000000 0.000000 0.000000
					}
				}
			}
			JOINT RightUpLegEnd
			{
				OFFSET 0.000000 0.000000 0.000000
				CHANNELS 3 Zrotation Yrotation Xrotation
				End Site
				{
					OFFSET 0.000000 0.000000 0.000000
				}
			}
		}
	}
	JOINT LeftUpLeg
	{
		OFFSET 11.315661 0.000000 -0.000000
		CHANNELS 3 Zrotation Yrotation Xrotation
		JOINT LeftLeg
		{
			OFFSET -0.000000 -38.200325 0.000000
			CHANNELS 3 Zrotation Yrotation Xrotation
			JOINT LeftFoot
			{
				OFFSET -0.000000 -39.900856 0.000000
				CHANNELS 3 Zrotation Yrotation Xrotation
				JOINT LeftToeBase
				{
					OFFSET -0.000000 0.000000 15.261641
					CHANNELS 3 Zrotation Yrotation Xrotation
					JOINT LeftToeBaseEnd
					{
						OFFSET -0.000000 0.000000 7.539996
						CHANNELS 3 Zrotation Yrotation Xrotation
						End Site
						{
							OFFSET 0.000000 0.000000 0.000000
						}
					}
				}
				JOINT LeftLegEnd
				{
					OFFSET 0.000000 0.000000 0.000000
					CHANNELS 3 Zrotation Yrotation Xrotation
					End Site
					{
						OFFSET 0.000000 0.000000 0.000000
					}
				}
			}
			JOINT LeftUpLegEnd
			{
				OFFSET 0.000000 0.000000 0.000000
				CHANNELS 3 Zrotation Yrotation Xrotation
				End Site
				{
					OFFSET 0.000000 0.000000 0.000000
				}
			}
		}
	}
}
MOTION
Frames: 4
Frame Time: 0.016667
1.324476 86.935013 4.250773 -0.005520 -0.000820 -8.454336 -9.502729 2.132209 2.603971 23.001511 -7.753243 4.944421 -18.496262 2.613333 4.758206 6.376277 -2.118146 -0.085917 6.159887 1.680514 13.992615 -3.575328 1.129971 -5.854432 -0.653064 3.409355 -25.356731 0.000000 0.000000 0.000000 100.776543 -0.800587 3.953491 53.386036 -44.861557 2.161399 1.646132 15.969770 37.149387 2.687206 15.016356 -12.363097 9.441423 -1.728222 40.406590 0.000000 0.000000 -23.039999 0.000000 0.000000 -15.999999 0.000000 0.000000 0.000000 10.604505 0.000000 -9.643257 7.423153 0.000000 0.000000 7.423153 0.000000 0.000000 0.000000 0.000000 0.000000 11.399842 0.000000 -11.609115 7.979890 0.000000 0.000000 7.979890 0.000000 0.000000 0.000000 0.000000 0.000000 13.540874 0.000000 -12.430757 9.478612 0.000000 0.000000 9.478612 0.000000 0.000000 0.000000 0.000000 0.000000 14.975492 0.000000 -15.047190 10.482848 0.000000 0.000000 10.482848 0.000000 0.000000 0.000000 0.000000 0.000000 0.000000 0.000000 0.000000 0.000000 0.000000 0.000000 -95.208824 0.461970 4.229309 -60.893921 44.539249 -2.663038 -1.430935 -6.288035 50.052158 -2.959770 -13.881307 -14.714699 -8.844158 1.663611 40.678265 0.000000 0.000000 -21.599998 0.000000 0.000000 -15.000001 0.000000 0.000000 0.000000 -12.041668 0.000000 -12.461102 -8.429168 0.000000 0.000000 -8.429168 0.000000 0.000000 0.000000 0.000000 0.000000 -12.888119 -0.000000 -13.922879 -9.021683 0.000000 0.000000 -9.021683 0.000000 0.000000 0.000000 0.000000 0.000000 -15.009265 0.000000 -13.607731 -10.506484 0.000000 0.000000 -10.506484 0.000000 0.000000 0.000000 0.000000 0.000000 -16.041897 -0.000000 -13.917473 -11.229328 0.000000 0.000000 -11.229328 0.000000 0.000000 0.000000 0.000000 0.000000 0.000000 0.000000 0.000000 0.000000 0.000000 0.000000 -3.804071 -6.247012 10.866132 -0.277084 -1.224930 12.755727 -0.078077 -16.042011 13.849055 -0.819756 -0.598396 -27.499289 0.000000 0.000000 0.000000 0.000000 0.000000 0.000000 0.000000 0.000000 0.000000 6.390305 4.668367 7.751981 0.242041 1.004258 13.551477 -0.124300 2.065108 14.313011 0.291276 0.297029 -28.654657 0.000000 0.000000 0.000000 0.000000 0.000000 0.000000 0.000000 0.000000 0.000000 
1.309216 86.335701 4.519604 -0.339932 -0.286494 -10.357615 -1.391553 0.162163 6.376936 8.722683 -2.351363 1.654410 -8.096439 1.859677 9.494491 2.405664 -0.961496 -0.903793 7.247534 1.932927 12.781895 -2.881372 1.718017 -5.303567 -0.388504 3.299047 -24.459793 0.000000 0.000000 0.000000 99.649574 -1.539635 2.935023 58.955360 -42.223045 -0.226339 1.182986 18.062422 37.303200 1.355653 15.656966 -10.201864 9.302244 -1.720628 40.306355 0.000000 0.000039 -22.980152 0.000000 0.000048 -15.845271 0.000001 -0.000006 -0.000030 9.229449 0.258425 -9.135158 7.101335 -0.059165 0.057342 7.168596 -0.026669 0.011583 -0.000020 0.000004 -0.000035 10.329867 0.084670 -11.292570 7.596970 -0.039351 0.026214 7.572093 -0.008442 0.027005 0.000032 0.000100 -0.000003 12.786312 -0.153586 -12.252424 9.096763 0.054225 -0.025155 9.037383 0.006872 -0.019473 -0.000024 0.000299 0.000015 14.238525 -0.425953 -14.983178 10.167941 0.112118 0.061622 10.109232 -0.009323 0.021162 -0.000136 -0.000005 0.000024 0.000000 0.000000 0.000000 0.000000 0.000000 0.000000 -93.329247 0.508872 4.906683 -58.261604 47.674416 0.531279 -1.822422 -8.957653 49.901394 -1.814055 -15.152560 -16.337362 -8.746526 1.636579 40.616692 0.000006 0.000035 -21.437204 -0.000043 -0.000036 -14.651984 -0.000217 -0.000001 -0.000773 -11.847976 0.283704 -12.259833 -7.952357 -0.013121 0.180132 -7.974753 0.026517 0.157731 0.000003 -0.000110 -0.000021 -12.725924 0.129043 -13.187148 -8.696723 -0.027183 0.054464 -8.381318 0.004428 0.042791 -0.001012 -0.000059 -0.000023 -15.005426 -0.113687 -12.088972 -10.197732 0.053582 -0.103234 -10.192213 -0.008248 -0.072852 0.000493 0.000008 0.000006 -16.655161 -0.420032 -12.028559 -11.255996 0.068279 -0.251011 -11.243295 -0.040411 -0.193915 -0.000768 0.000003 -0.000038 0.000000 0.000000 0.000000 0.000000 0.000000 0.000000 -4.154321 -6.466052 12.038247 -0.188704 -0.909253 12.728452 -0.426300 -14.392420 15.842264 -0.382415 -0.896731 -28.350229 0.000000 0.000000 0.000000 0.000000 0.000000 0.000000 0.000000 0.000000 0.000000 6.704493 4.471766 10.681567 0.212710 0.982310 11.692791 -0.231871 4.504310 15.817056 0.422298 0.140254 -27.810955 0.000000 0.000000 0.000000 0.000000 0.000000 0.000000 0.000000 0.000000 0.000000 
1.271219 86.302864 4.635812 -0.419685 -0.275467 -10.564551 -1.334249 0.165253 6.543516 8.589842 -2.333705 1.632805 -7.826532 1.749110 9.609664 2.388083 -0.973226 -0.877409 7.273944 1.922926 12.944758 -2.897793 1.700818 -5.204501 -0.381126 3.320948 -24.478405 0.000000 0.000000 0.000000 99.480766 -1.483978 2.964851 59.470482 -41.690170 -0.490374 1.210291 18.267420 37.634773 0.727281 16.021889 -10.512234 9.231953 -1.715274 40.344288 -0.000006 0.000050 -22.774960 0.000010 0.000039 -15.714375 0.000012 0.000001 -0.000042 8.834237 0.247528 -9.007257 6.936185 -0.062546 0.077434 7.003080 -0.030755 0.025726 -0.000008 0.000015 -0.000026 9.932496 0.080154 -11.188597 7.426318 -0.040008 0.029956 7.390257 -0.009325 0.029955 0.000032 0.000078 -0.000013 12.384109 -0.146337 -12.261208 8.935752 0.054911 -0.031232 8.873468 0.007607 -0.023550 -0.000026 0.000442 0.000010 13.943410 -0.399541 -15.070476 10.025143 0.111599 0.048176 9.971541 -0.005407 0.009640 -0.000207 -0.000000 0.000022 0.000000 0.000000 0.000000 0.000000 0.000000 0.000000 -93.311821 0.481686 4.861573 -58.363766 47.573574 0.452602 -1.809999 -8.736032 49.954708 -1.825055 -14.989075 -16.195364 -8.738043 1.631915 40.628544 0.000010 0.000040 -21.384481 -0.000047 -0.000036 -14.619189 -0.000156 0.000005 -0.001022 -11.789446 0.271377 -12.270751 -7.998616 -0.009593 0.185231 -8.027833 0.028939 0.159656 0.000014 -0.000085 -0.000020 -12.662848 0.123193 -13.231797 -8.733363 -0.025313 0.056819 -8.427399 0.005141 0.044236 -0.000948 -0.000063 -0.000045 -14.922980 -0.103308 -12.204819 -10.227307 0.050136 -0.105318 -10.211142 -0.008976 -0.075543 0.000511 0.000010 0.000008 -16.500523 -0.387047 -12.195370 -11.271422 0.059332 -0.257497 -11.240387 -0.044061 -0.201707 -0.000757 0.000009 -0.000048 0.000000 0.000000 0.000000 0.000000 0.000000 0.000000 -4.075370 -6.455269 12.334889 -0.184245 -0.918850 12.663905 -0.428325 -14.360892 15.749606 -0.379629 -0.878866 -28.350660 0.000000 0.000000 0.000000 0.000000 0.000000 0.000000 0.000000 0.000000 0.000000 6.894675 4.669268 11.058423 0.209339 0.978588 11.516852 -0.293368 4.263755 15.666127 0.422800 0.136684 -27.797520 0.000000 0.000000 0.000000 0.000000 0.000000 0.000000 0.000000 0.000000 0.000000 
1.245810 86.277885 4.759704 -0.461504 -0.314216 -10.703840 -1.295504 0.168573 6.651794 8.460921 -2.309786 1.510701 -7.578883 1.658537 9.783226 2.365844 -0.977715 -0.897440 7.297596 1.918794 12.951044 -2.902697 1.697086 -5.198192 -0.368684 3.331153 -24.451359 0.000000 0.000000 0.000000 99.412636 -1.450735 3.002373 59.843178 -41.383678 -0.691097 1.243040 18.454584 37.562065 0.394735 16.246923 -10.608225 9.196101 -1.711275 40.366199 -0.000006 0.000050 -22.669838 0.000009 0.000041 -15.645123 0.000012 0.000001 -0.000042 8.580744 0.242124 -8.930631 6.848196 -0.062902 0.084756 6.917765 -0.031323 0.029298 -0.000008 0.000013 -0.000025 9.679218 0.077954 -11.115886 7.344967 -0.039461 0.029303 7.303269 -0.009082 0.029134 0.000031 0.000069 -0.000012 12.118784 -0.142432 -12.247471 8.850924 0.053572 -0.029031 8.787727 0.006803 -0.021444 -0.000024 0.000555 0.000011 13.717801 -0.384878 -15.097641 9.937421 0.106877 0.059315 9.887382 -0.007768 0.018865 -0.000285 -0.000001 0.000011 0.000000 0.000000 0.000000 0.000000 0.000000 0.000000 -93.321602 0.484772 4.845917 -58.320774 47.572083 0.401270 -1.800992 -8.607250 49.993950 -1.956573 -14.782947 -15.998379 -8.742866 1.630123 40.629589 0.000009 0.000042 -21.389452 -0.000049 -0.000036 -14.628203 -0.000111 0.000004 -0.001217 -11.829138 0.262898 -12.192937 -8.056696 -0.006135 0.193276 -8.092231 0.031696 0.164590 0.000013 -0.000079 -0.000020 -12.701402 0.120263 -13.188457 -8.779281 -0.023684 0.060586 -8.483880 0.006038 0.046974 -0.001012 -0.000066 -0.000061 -14.916338 -0.097181 -12.232392 -10.244769 0.047422 -0.109080 -10.226061 -0.010029 -0.078930 0.000607 0.000010 0.000008 -16.400551 -0.369579 -12.264817 -11.245036 0.052371 -0.266766 -11.218455 -0.047890 -0.211641 -0.000765 0.000009 -0.000048 0.000000 0.000000 0.000000 0.000000 0.000000 0.000000 -4.007125 -6.398745 12.592731 -0.182217 -0.927548 12.577217 -0.437767 -14.339785 15.642476 -0.386649 -0.865103 -28.305424 0.000000 0.000000 0.000000 0.000000 0.000000 0.000000 0.000000 0.000000 0.000000 7.009712 4.799500 11.358409 0.207225 0.976408 11.400452 -0.353586 4.186487 15.517241 0.420658 0.136956 -27.755926 0.000000 0.000000 0.000000 0.000000 0.000000 0.000000 0.000000 0.000000 0.000000 
